<svg width="33" height="32" viewBox="0 0 33 32" fill="none" xmlns="http://www.w3.org/2000/svg">
<g clip-path="url(#clip0_5694_4995)">
<path d="M26.1263 11.8634C25.9766 11.9804 23.3349 13.4806 23.3349 16.8164C23.3349 20.6748 26.6964 22.0398 26.797 22.0736C26.7815 22.1568 26.263 23.943 25.0247 25.763C23.9205 27.3646 22.7673 28.9636 21.013 28.9636C19.2587 28.9636 18.8072 27.9366 16.782 27.9366C14.8084 27.9366 14.1067 28.9974 12.5021 28.9974C10.8974 28.9974 9.77773 27.5154 8.49038 25.6954C6.99922 23.5582 5.79443 20.238 5.79443 17.0868C5.79443 12.0324 9.05537 9.3518 12.2647 9.3518C13.97 9.3518 15.3915 10.4802 16.4621 10.4802C17.4812 10.4802 19.0704 9.2842 21.0104 9.2842C21.7457 9.2842 24.3874 9.3518 26.1263 11.8634ZM20.0894 7.1444C20.8917 6.185 21.4593 4.8538 21.4593 3.5226C21.4593 3.338 21.4438 3.1508 21.4103 3C20.1049 3.0494 18.5518 3.8762 17.6153 4.9708C16.8801 5.8132 16.1938 7.1444 16.1938 8.4938C16.1938 8.6966 16.2274 8.8994 16.2428 8.9644C16.3254 8.98 16.4595 8.9982 16.5937 8.9982C17.7649 8.9982 19.238 8.2078 20.0894 7.1444Z" fill="white"/>
</g>
<defs>
<clipPath id="clip0_5694_4995">
<rect width="21" height="26" fill="white" transform="translate(5.79443 3)"/>
</clipPath>
</defs>
</svg>
